<svg width="276" height="345" viewBox="0 0 276 345" fill="none" xmlns="http://www.w3.org/2000/svg">
<rect x="25.5" y="0.5" width="232" height="344" rx="15.5" fill="#005F82" stroke="#005F82"/>
<ellipse cx="84.2663" cy="127.488" rx="84.2663" ry="127.488" transform="matrix(0.841506 -0.540248 0.499374 0.866386 0 108.049)" fill="white"/>
<path d="M45.2383 331.738C45.2383 332.598 44.9323 333.327 44.3203 333.926C43.4349 334.772 42.1654 335.195 40.5117 335.195C39.0924 335.195 37.8815 334.863 36.8789 334.199C36.8789 334.421 36.8659 334.596 36.8398 334.727C36.7747 334.935 36.5664 335.039 36.2148 335.039V330.898H36.9766C37.0286 331.589 37.1719 332.201 37.4062 332.734C37.9661 333.997 38.9362 334.629 40.3164 334.629C40.681 334.629 41.013 334.577 41.3125 334.473C42.1458 334.16 42.5625 333.535 42.5625 332.598C42.5625 332.324 42.5039 332.057 42.3867 331.797C42.1133 331.25 41.4167 330.684 40.2969 330.098C39.0469 329.46 38.3438 329.089 38.1875 328.984C36.9505 328.216 36.332 327.292 36.332 326.211C36.332 325.482 36.5859 324.85 37.0938 324.316C37.888 323.496 39.0729 323.086 40.6484 323.086C41.8464 323.086 42.9857 323.34 44.0664 323.848C44.0664 323.73 44.0729 323.626 44.0859 323.535C44.151 323.288 44.3659 323.164 44.7305 323.164V326.699H43.9688C43.9557 325.996 43.7865 325.391 43.4609 324.883C42.9271 324.076 42.1263 323.672 41.0586 323.672C40.7852 323.672 40.5247 323.711 40.2773 323.789C39.5352 324.036 39.1641 324.544 39.1641 325.312C39.1641 325.612 39.2292 325.898 39.3594 326.172C39.6328 326.732 40.3164 327.298 41.4102 327.871C42.6081 328.509 43.2917 328.874 43.4609 328.965C44.6458 329.733 45.2383 330.658 45.2383 331.738ZM50.8633 334.492C50.9414 334.492 51.013 334.499 51.0781 334.512C51.2474 334.538 51.332 334.701 51.332 335H46.5273V334.492C46.6966 334.492 46.8464 334.479 46.9766 334.453C47.4323 334.375 47.6602 334.049 47.6602 333.477V327.109H46.5273V326.602H50.1406V334.492H50.8633ZM50.3164 324.043C50.3164 324.29 50.2513 324.525 50.1211 324.746C49.8477 325.228 49.4245 325.469 48.8516 325.469C48.6172 325.469 48.3893 325.41 48.168 325.293C47.6602 325.033 47.4062 324.616 47.4062 324.043C47.4062 323.796 47.4648 323.561 47.582 323.34C47.8685 322.832 48.2917 322.578 48.8516 322.578C49.099 322.578 49.3333 322.643 49.5547 322.773C50.0625 323.047 50.3164 323.47 50.3164 324.043ZM55.043 329.609C55.043 330.508 55.0885 331.133 55.1797 331.484C55.3359 332.083 55.7331 332.383 56.3711 332.383C56.7617 332.383 57.0677 332.272 57.2891 332.051C57.6016 331.699 57.7578 330.866 57.7578 329.551C57.7578 328.691 57.7122 328.079 57.6211 327.715C57.4518 327.116 57.0417 326.816 56.3906 326.816C55.987 326.816 55.681 326.934 55.4727 327.168C55.1862 327.507 55.043 328.32 55.043 329.609ZM56.4688 326.309C57.3802 326.309 58.1484 326.504 58.7734 326.895C58.8255 326.751 58.8841 326.608 58.9492 326.465C59.3268 325.684 59.8542 325.293 60.5312 325.293C60.7786 325.293 61.0065 325.339 61.2148 325.43C61.6706 325.625 61.8984 325.957 61.8984 326.426C61.8984 326.491 61.8919 326.556 61.8789 326.621C61.7878 326.986 61.5469 327.168 61.1562 327.168C60.987 327.168 60.8047 327.09 60.6094 326.934C60.362 326.712 60.1536 326.602 59.9844 326.602C59.6719 326.615 59.3984 326.803 59.1641 327.168C59.8672 327.78 60.2253 328.561 60.2383 329.512C60.2383 330.215 60.0299 330.853 59.6133 331.426C58.8841 332.402 57.8034 332.891 56.3711 332.891L54.2812 332.871C54.2292 332.871 54.1771 332.878 54.125 332.891C53.7995 332.93 53.6367 333.099 53.6367 333.398C53.6367 333.438 53.6432 333.477 53.6562 333.516C53.7214 333.802 53.9232 333.952 54.2617 333.965L58.3047 334.043C58.487 334.043 58.6628 334.056 58.832 334.082C60.2643 334.264 60.9805 335.013 60.9805 336.328C60.9805 336.667 60.8828 336.992 60.6875 337.305C60.0625 338.307 58.6823 338.809 56.5469 338.809C55.6615 338.809 54.9062 338.691 54.2812 338.457C53.3568 338.105 52.8945 337.578 52.8945 336.875C52.8945 336.484 53.0638 336.087 53.4023 335.684C52.9336 335.293 52.6927 334.785 52.6797 334.16C52.6797 333.9 52.7318 333.639 52.8359 333.379C53.1354 332.689 53.6693 332.35 54.4375 332.363H54.457C54.2747 332.259 54.099 332.142 53.9297 332.012C53.0182 331.309 52.5625 330.488 52.5625 329.551C52.5625 328.887 52.7578 328.288 53.1484 327.754C53.8516 326.79 54.9583 326.309 56.4688 326.309ZM56.5469 338.281C57.1589 338.281 57.7188 338.229 58.2266 338.125C59.4375 337.891 60.043 337.467 60.043 336.855C60.043 336.725 60.0169 336.615 59.9648 336.523C59.8346 336.289 59.3919 336.172 58.6367 336.172L54.6914 336.133C54.4049 336.133 54.1315 336.081 53.8711 335.977C53.6758 336.25 53.5781 336.523 53.5781 336.797C53.5781 336.94 53.6107 337.083 53.6758 337.227C54.0013 337.93 54.9583 338.281 56.5469 338.281ZM66.0977 334.492C66.1758 334.492 66.2474 334.499 66.3125 334.512C66.4818 334.538 66.5664 334.701 66.5664 335H61.9961V334.492C62.1003 334.492 62.1979 334.486 62.2891 334.473C62.849 334.408 63.1289 334.076 63.1289 333.477V327.109H61.9961V326.602H65.4727L65.5703 328.125C65.6875 327.891 65.8438 327.663 66.0391 327.441C66.7031 326.686 67.5104 326.309 68.4609 326.309C68.7995 326.309 69.125 326.361 69.4375 326.465C70.5833 326.868 71.1562 327.878 71.1562 329.492V334.492H71.8008C71.8789 334.492 71.957 334.499 72.0352 334.512C72.2044 334.538 72.2891 334.701 72.2891 335H67.7773V334.492C67.9596 334.492 68.1159 334.473 68.2461 334.434C68.5326 334.342 68.6758 334.023 68.6758 333.477V329.16C68.6758 328.978 68.6628 328.802 68.6367 328.633C68.5065 327.76 68.0703 327.324 67.3281 327.324C67.1328 327.324 66.944 327.37 66.7617 327.461C66.0977 327.786 65.7201 328.464 65.6289 329.492L65.6094 334.492H66.0977ZM85.2188 335H79.9844V334.473H81.3711L79.9062 330.723H76.0195L74.6133 334.473H75.707C75.7852 334.473 75.8568 334.479 75.9219 334.492C76.0911 334.518 76.1758 334.688 76.1758 335H72.582V334.473H73.832L78.1094 323.281H79.5547L84.1641 334.473H84.75C84.8281 334.473 84.8997 334.479 84.9648 334.492C85.1341 334.518 85.2188 334.688 85.2188 335ZM79.6719 330.137L77.9336 325.645L76.2539 330.137H79.6719ZM91.4688 335H85.6094V334.473H87.1719V323.809H85.6094V323.281H91.4688V323.809H89.9062V334.473H90.9414C91.2148 334.499 91.3906 334.674 91.4688 335Z" fill="white"/>
<path d="M140.172 200H134.859C134.859 193.229 136.109 187.5 138.609 182.812C138.818 182.396 140.693 179.635 144.234 174.531C148.297 168.49 150.328 160.938 150.328 151.875C150.328 150 150.12 148.229 149.703 146.562C148.245 141.354 145.016 138.75 140.016 138.75C137.828 138.75 136.005 139.219 134.547 140.156C132.88 141.406 131.786 144.323 131.266 148.906C131.057 150.677 130.849 151.979 130.641 152.812C129.703 157.083 126.891 159.219 122.203 159.219C121.161 159.219 120.12 159.115 119.078 158.906C114.911 157.865 112.828 155.156 112.828 150.781C112.932 147.24 114.443 144.115 117.359 141.406C122.568 136.927 130.12 134.688 140.016 134.688C145.328 134.688 150.224 135.365 154.703 136.719C165.016 139.948 170.172 145.885 170.172 154.531C170.172 158.802 169.13 162.604 167.047 165.938C165.172 168.958 161.266 172.604 155.328 176.875C152.828 178.646 151.005 180 149.859 180.938C143.401 186.25 140.172 192.604 140.172 200ZM149.234 219.844C149.234 221.719 148.818 223.49 147.984 225.156C145.901 228.906 142.62 230.781 138.141 230.781C136.37 230.781 134.703 230.365 133.141 229.531C129.182 227.552 127.203 224.323 127.203 219.844C127.203 218.073 127.62 216.354 128.453 214.688C130.536 210.729 133.766 208.75 138.141 208.75C139.911 208.75 141.63 209.167 143.297 210C147.255 212.188 149.234 215.469 149.234 219.844Z" fill="#005F82"/>
<path d="M50.8086 10.1897L50.792 10.193L50.6851 10.2513L50.6549 10.2579L50.6339 10.2513L50.5269 10.193C50.5108 10.1874 50.4988 10.1902 50.4907 10.2013L50.4847 10.218L50.4591 10.9307L50.4666 10.964L50.4817 10.9857L50.6384 11.1089L50.661 11.1155L50.679 11.1089L50.8357 10.9857L50.8538 10.959L50.8598 10.9307L50.8342 10.2196C50.8302 10.2019 50.8217 10.1919 50.8086 10.1897ZM51.2078 10.0015L51.1882 10.0048L50.9095 10.1597L50.8945 10.1763L50.8899 10.1947L50.9171 10.9107L50.9246 10.9307L50.9366 10.9424L51.2394 11.0972C51.2585 11.1028 51.2731 11.0983 51.2831 11.0839L51.2891 11.0606L51.2379 10.0381C51.2329 10.0181 51.2229 10.0059 51.2078 10.0015ZM50.1307 10.0048C50.1241 10.0004 50.1161 9.99893 50.1086 10.0008C50.101 10.0027 50.0944 10.0077 50.09 10.0148L50.081 10.0381L50.0298 11.0606C50.0308 11.0806 50.0393 11.0939 50.0554 11.1006L50.078 11.0972L50.3808 10.9424L50.3958 10.929L50.4019 10.9107L50.4275 10.1947L50.423 10.1747L50.4079 10.158L50.1307 10.0048Z" fill="white"/>
<path d="M47.0184 14.1757C47.5275 12.9101 49.0957 12.8485 49.7103 13.9859L49.7992 14.1757L51.3689 18.0807C52.7395 21.4894 55.0189 24.3542 57.9022 26.2921L58.3873 26.6068L61.1741 28.3387C61.3957 28.4758 61.5826 28.672 61.718 28.9095C61.8534 29.1469 61.9329 29.4181 61.9492 29.6982C61.9655 29.9783 61.9182 30.2584 61.8115 30.5131C61.7048 30.7678 61.5421 30.9889 61.3383 31.1563L61.1756 31.2729L58.3873 33.0048C55.4458 34.8338 53.0797 37.6121 51.6054 40.968L51.3689 41.5309L49.7992 45.4359C49.29 46.7015 47.7219 46.7631 47.1073 45.6257L47.0184 45.4359L45.4487 41.5309C44.0781 38.1222 41.7987 35.2574 38.9154 33.3195L38.4303 33.0048L35.6435 31.2729C35.4219 31.1358 35.2349 30.9396 35.0996 30.7021C34.9642 30.4647 34.8847 30.1935 34.8684 29.9134C34.8521 29.6333 34.8994 29.3532 35.0061 29.0985C35.1128 28.8438 35.2755 28.6227 35.4793 28.4553L35.642 28.3387L38.4303 26.6068C41.3718 24.7778 43.7379 21.9995 45.2122 18.6436L45.4487 18.0807L47.0184 14.1757ZM60.793 13.3547C61.5406 15.2326 62.8158 16.7941 64.4295 17.8076C64.6705 17.9575 64.6705 18.3405 64.4295 18.4904C62.815 19.5041 61.5392 21.0662 60.7915 22.9449C60.7629 23.0157 60.7164 23.0757 60.6575 23.1179C60.5987 23.16 60.5302 23.1824 60.4601 23.1824C60.39 23.1824 60.3214 23.16 60.2626 23.1179C60.2038 23.0757 60.1573 23.0157 60.1287 22.9449C59.3807 21.0668 58.1049 19.5053 56.4907 18.4921C56.4362 18.4577 56.3909 18.408 56.3594 18.3481C56.3279 18.2881 56.3113 18.22 56.3113 18.1507C56.3113 18.0813 56.3279 18.0132 56.3594 17.9533C56.3909 17.8933 56.4362 17.8437 56.4907 17.8093C58.1054 16.7952 59.3812 15.2324 60.1287 13.3531C60.1573 13.2824 60.2038 13.2223 60.2626 13.1802C60.3214 13.138 60.39 13.1156 60.4601 13.1156C60.5302 13.1156 60.5987 13.138 60.6575 13.1802C60.7164 13.2223 60.7629 13.2824 60.7915 13.3531L60.793 13.3547Z" fill="white"/>
<path d="M239.492 296.19L239.476 296.193L239.369 296.251L239.339 296.258L239.317 296.251L239.21 296.193C239.194 296.187 239.182 296.19 239.174 296.201L239.168 296.218L239.143 296.931L239.15 296.964L239.165 296.986L239.322 297.109L239.345 297.116L239.363 297.109L239.519 296.986L239.537 296.959L239.543 296.931L239.518 296.22C239.514 296.202 239.505 296.192 239.492 296.19ZM239.891 296.001L239.872 296.005L239.593 296.16L239.578 296.176L239.574 296.195L239.601 296.911L239.608 296.931L239.62 296.942L239.923 297.097C239.942 297.103 239.957 297.098 239.967 297.084L239.973 297.061L239.922 296.038C239.916 296.018 239.906 296.006 239.891 296.001ZM238.814 296.005C238.808 296 238.8 295.999 238.792 296.001C238.785 296.003 238.778 296.008 238.774 296.015L238.765 296.038L238.713 297.061C238.714 297.081 238.723 297.094 238.739 297.101L238.762 297.097L239.064 296.942L239.079 296.929L239.085 296.911L239.111 296.195L239.107 296.175L239.091 296.158L238.814 296.005Z" fill="white"/>
<path d="M235.702 300.176C236.211 298.91 237.779 298.849 238.394 299.986L238.483 300.176L240.052 304.081C241.423 307.489 243.702 310.354 246.586 312.292L247.071 312.607L249.858 314.339C250.079 314.476 250.266 314.672 250.402 314.909C250.537 315.147 250.616 315.418 250.633 315.698C250.649 315.978 250.602 316.258 250.495 316.513C250.388 316.768 250.226 316.989 250.022 317.156L249.859 317.273L247.071 319.005C244.129 320.834 241.763 323.612 240.289 326.968L240.052 327.531L238.483 331.436C237.974 332.701 236.405 332.763 235.791 331.626L235.702 331.436L234.132 327.531C232.762 324.122 230.482 321.257 227.599 319.319L227.114 319.005L224.327 317.273C224.106 317.136 223.919 316.94 223.783 316.702C223.648 316.465 223.568 316.194 223.552 315.913C223.536 315.633 223.583 315.353 223.69 315.098C223.796 314.844 223.959 314.623 224.163 314.455L224.326 314.339L227.114 312.607C230.055 310.778 232.421 308 233.896 304.644L234.132 304.081L235.702 300.176ZM249.477 299.355C250.224 301.233 251.499 302.794 253.113 303.808C253.354 303.958 253.354 304.341 253.113 304.49C251.499 305.504 250.223 307.066 249.475 308.945C249.446 309.016 249.4 309.076 249.341 309.118C249.282 309.16 249.214 309.182 249.144 309.182C249.074 309.182 249.005 309.16 248.946 309.118C248.887 309.076 248.841 309.016 248.812 308.945C248.064 307.067 246.789 305.505 245.174 304.492C245.12 304.458 245.075 304.408 245.043 304.348C245.011 304.288 244.995 304.22 244.995 304.151C244.995 304.081 245.011 304.013 245.043 303.953C245.075 303.893 245.12 303.844 245.174 303.809C246.789 302.795 248.065 301.232 248.812 299.353C248.841 299.282 248.887 299.222 248.946 299.18C249.005 299.138 249.074 299.116 249.144 299.116C249.214 299.116 249.282 299.138 249.341 299.18C249.4 299.222 249.446 299.282 249.475 299.353L249.477 299.355Z" fill="white"/>
</svg>
